<svg width="912" height="912" viewBox="0 0 912 912" fill="none" xmlns="http://www.w3.org/2000/svg">
<g clip-path="url(#clip0_5_78)">
<path d="M646.9 274.911C653.4 210.111 642.9 164.075 618.1 148.475C611.4 144.22 603.3 142.148 594.1 142.148C569.8 142.148 537.5 157.202 503.3 184.475C502.8 184.911 502.3 185.348 501.7 185.784C521.6 207.602 541.1 232.148 559.7 258.766C590.1 263.02 619.3 269.239 646.6 277.093C646.8 276.329 646.8 275.675 646.9 274.911Z" fill="#7B5EA7"/>
<path d="M617.7 557.893C614.5 564.002 611.1 570.22 607.6 576.438C617 574.148 626.2 571.639 635.2 569.02C632.8 559.202 630.2 549.275 627.3 539.239C624.1 545.457 620.9 551.784 617.7 557.893Z" fill="#7B5EA7"/>
<path d="M292.9 763.093C317.7 778.693 359.5 765.602 407.7 727.093C408.2 726.657 408.7 726.22 409.2 725.893C389.3 704.075 369.8 679.529 351.2 652.911C320.8 648.657 291.6 642.439 264.3 634.584C264.2 635.239 264.2 636.002 264.1 636.657C257.6 701.348 268.1 747.493 292.9 763.093Z" fill="#7B5EA7"/>
<path d="M384.5 321.602C371.1 342.329 358.2 364.257 346.2 386.948C334.3 409.529 323.3 432.657 313.5 455.784C323.3 478.911 334.3 502.039 346.2 524.62C358.1 547.202 371 569.129 384.5 589.966C430.9 594.657 480.1 594.657 526.5 589.966C539.9 569.239 552.8 547.311 564.8 524.62C576.7 502.039 587.7 478.911 597.5 455.784C587.7 432.657 576.7 409.529 564.8 386.948C552.9 364.366 540 342.439 526.5 321.602C480 317.02 431 317.02 384.5 321.602Z" fill="#7B5EA7"/>
<path d="M607.6 335.129C611 341.239 614.4 347.457 617.7 353.675C620.9 359.675 624.1 366.002 627.4 372.439C630.3 362.402 633 352.475 635.3 342.548C626.3 339.929 617 337.42 607.6 335.129Z" fill="#7B5EA7"/>
<path d="M303.4 335.129C294 337.42 284.7 339.929 275.8 342.548C278.2 352.366 280.8 362.293 283.7 372.329C286.9 366.002 290.1 359.675 293.3 353.566C296.6 347.566 300 341.348 303.4 335.129Z" fill="#7B5EA7"/>
<path d="M455.5 660.002C449.1 660.002 442.5 659.893 435.8 659.784C442.3 667.529 448.9 675.057 455.5 682.148C462.1 675.057 468.7 667.529 475.2 659.784C468.5 660.002 461.9 660.002 455.5 660.002Z" fill="#7B5EA7"/>
<path d="M455.5 251.566C461.9 251.566 468.5 251.675 475.2 251.784C468.7 244.039 462.1 236.511 455.5 229.42C448.9 236.511 442.3 244.039 435.8 251.784C442.5 251.675 449.1 251.566 455.5 251.566Z" fill="#7B5EA7"/>
<path d="M694.8 546.22C749.5 519.929 780.8 486.984 780.8 455.784C780.8 424.584 749.5 391.639 694.8 365.348C694.2 365.02 693.6 364.802 693 364.475C685.6 394.257 675.9 424.911 664.1 455.784C675.9 486.657 685.6 517.311 693 547.093C693.6 546.766 694.2 546.548 694.8 546.22Z" fill="#7B5EA7"/>
<path d="M901.1 455.784C901.1 410.293 884.9 366.22 854.2 328.475C854.1 328.366 854.1 328.366 854 328.257C833 302.511 805.2 279.602 771.5 260.075C769.8 259.093 768.8 257.129 768.8 255.057C770.2 213.384 765.8 175.748 755.9 143.02C741.3 95.0199 714.5 57.6018 678.3 34.8018C642.1 12.0018 598.9 5.34721 553.5 15.6018C522.6 22.5836 490.5 37.3108 458.1 59.4563C456.5 60.5472 454.4 60.5472 452.8 59.4563C420.4 37.3108 388.3 22.5836 357.4 15.6018C312 5.34721 268.9 12.0018 232.6 34.8018C196.4 57.6018 169.5 95.0199 155 143.02C145.1 175.639 140.7 213.384 142.1 255.057C142.2 257.129 141.1 259.093 139.4 260.075C105.7 279.602 77.9001 302.511 56.9001 328.257C26.1001 366.002 9.80005 410.075 9.80005 455.784C9.80005 501.384 26.1001 545.457 56.9001 583.311C77.9001 609.057 105.7 631.966 139.4 651.493C141.1 652.475 142.1 654.439 142.1 656.511C140.7 698.184 145.1 735.82 155 768.548C169.6 816.548 196.4 853.966 232.6 876.766C257.8 892.693 286 900.657 316.5 900.657C359.9 900.657 405.7 884.293 452.8 852.111C453.6 851.566 454.5 851.239 455.5 851.239C456.5 851.239 457.3 851.566 458.2 852.111C505.3 884.293 551.1 900.657 594.5 900.657C624.9 900.657 653.1 892.584 678.4 876.766C714.6 853.966 741.5 816.548 756 768.548C765.9 735.929 770.3 698.184 768.9 656.511C768.8 654.439 769.9 652.475 771.6 651.493C805.3 631.966 833.1 608.948 854.1 583.311C884.8 545.457 901.1 501.384 901.1 455.784ZM719.4 607.093C715.1 609.166 710.5 611.239 705.7 613.311C706.4 618.875 707 624.002 707.6 629.02C707.6 629.129 707.6 629.239 707.6 629.348C716.9 722.948 696 790.802 648.6 820.693C632.5 830.839 614.3 835.966 594.4 835.966C556.4 835.966 512.4 816.875 467.2 780.766C463.4 777.711 459.4 774.439 455.4 770.948C451.3 774.439 447.4 777.711 443.6 780.766C398.4 816.875 354.4 835.966 316.4 835.966C296.5 835.966 278.3 830.839 262.2 820.693C214.8 790.802 193.9 722.948 203.3 629.348C203.8 624.22 204.4 618.984 205.2 613.311C200.4 611.239 195.9 609.166 191.5 607.093C112.6 569.129 69.1 515.348 69.1 455.784C69.1 396.111 112.6 342.329 191.5 304.475C195.8 302.402 200.4 300.329 205.2 298.257C204.4 292.584 203.8 287.348 203.3 282.22C194 188.62 214.9 120.766 262.3 90.8745C309.7 60.9836 374.1 75.2745 443.7 130.802C447.5 133.857 451.5 137.129 455.5 140.62C459.6 137.129 463.5 133.857 467.3 130.802C536.9 75.1654 601.3 60.9836 648.7 90.8745C648.8 90.9836 648.9 90.9836 649 91.0927C696.2 120.984 717 188.839 707.7 282.22C707.2 287.348 706.6 292.584 705.8 298.257C710.5 300.329 714.9 302.293 719.1 304.366C719.2 304.366 719.4 304.475 719.5 304.584C798.3 342.329 841.8 396.111 841.8 455.784C841.8 515.457 798.3 569.239 719.4 607.093Z" fill="#7B5EA7"/>
<path d="M407.7 184.475C373.5 157.202 341.3 142.148 316.9 142.148C307.7 142.148 299.6 144.329 292.9 148.475C268.1 164.075 257.6 210.22 264.1 274.911C264.1 275.02 264.1 275.129 264.1 275.348C264.2 275.893 264.2 276.548 264.3 277.093C291.6 269.239 320.7 263.02 351.2 258.766C369.8 232.148 389.3 207.602 409.2 185.784C408.7 185.348 408.2 184.911 407.7 184.475Z" fill="#7B5EA7"/>
<path d="M501.8 725.784C502.3 726.22 502.8 726.657 503.4 727.093C551.6 765.602 593.4 778.693 618.2 763.093C643 747.493 653.5 701.348 647 636.657C646.9 636.002 646.9 635.239 646.8 634.475C619.5 642.329 590.4 648.548 559.9 652.802C541.2 679.529 521.7 703.966 501.8 725.784Z" fill="#7B5EA7"/>
<path d="M130.2 455.784C130.2 486.984 161.5 519.929 216.2 546.22C216.8 546.548 217.4 546.766 218 547.093C225.4 517.311 235.1 486.657 246.9 455.784C235.1 424.911 225.4 394.257 218 364.475C217.4 364.802 216.8 365.02 216.2 365.348C161.6 391.639 130.2 424.584 130.2 455.784Z" fill="#7B5EA7"/>
<path d="M303.4 576.439C300 570.329 296.6 564.111 293.3 557.893C290.1 551.893 286.9 545.566 283.7 539.129C280.8 549.166 278.1 559.093 275.8 568.911C284.7 571.639 294 574.148 303.4 576.439Z" fill="#7B5EA7"/>
<path d="M861.5 321.057C861.4 320.948 861.4 320.948 861.3 320.839C840.1 294.984 812.4 271.857 778.9 252.111C780 210.548 775.4 172.693 765.4 139.639C750 89.0199 721.6 49.529 683.3 25.4199C644.9 1.20175 599.4 -5.78007 551.5 4.91084C520.3 11.8927 488 26.5108 455.5 48.4381C423 26.6199 390.7 12.0017 359.5 4.91084C311.7 -5.88916 266.1 1.20175 227.7 25.4199C189.3 49.529 160.9 89.129 145.6 139.639C135.6 172.693 131 210.439 132.1 252.111C98.5 271.966 70.8 295.093 49.6 321.057C17.1 360.875 0 407.457 0 455.784C0 504.111 17.2 550.693 49.6 590.511C70.8 616.475 98.6 639.711 132.1 659.457C131 701.02 135.6 738.875 145.6 771.929C161 822.548 189.4 862.039 227.7 886.148C254.5 902.948 284.3 911.566 316.6 911.566C361.1 911.566 407.8 895.311 455.6 863.13C503.4 895.202 550.1 911.566 594.6 911.566C626.8 911.566 656.7 903.057 683.4 886.148C721.8 862.039 750.2 822.439 765.5 771.929C775.5 738.875 780.1 701.129 779 659.457C812.6 639.602 840.3 616.475 861.5 590.511C894 550.693 911.1 504.111 911.1 455.784C911.1 407.457 894 360.875 861.5 321.057ZM771.5 651.493C769.8 652.475 768.8 654.439 768.8 656.511C770.2 698.184 765.8 735.929 755.9 768.548C741.3 816.548 714.5 853.966 678.3 876.766C653.1 892.693 624.9 900.657 594.4 900.657C551 900.657 505.2 884.293 458.1 852.111C457.3 851.566 456.4 851.239 455.4 851.239C454.4 851.239 453.6 851.566 452.7 852.111C405.6 884.293 359.8 900.657 316.4 900.657C286 900.657 257.8 892.584 232.5 876.766C196.3 853.966 169.4 816.548 154.9 768.548C145 735.82 140.6 698.184 142 656.511C142.1 654.439 141 652.475 139.3 651.493C105.6 631.966 77.8 608.948 56.8 583.311C26 545.566 9.7 501.493 9.7 455.784C9.7 410.184 26 366.111 56.8 328.257C77.8 302.511 105.6 279.602 139.3 260.075C141 259.093 142 257.129 142 255.057C140.6 213.384 145 175.639 154.9 143.02C169.5 95.0199 196.3 57.6017 232.5 34.8017C268.7 12.0017 311.9 5.3472 357.3 15.6017C388.2 22.5836 420.3 37.3108 452.7 59.4563C454.3 60.5472 456.4 60.5472 458 59.4563C490.4 37.3108 522.5 22.5836 553.4 15.6017C598.8 5.3472 641.9 12.0017 678.2 34.8017C714.4 57.6017 741.3 95.0199 755.8 143.02C765.7 175.748 770.1 213.384 768.7 255.057C768.6 257.129 769.7 259.093 771.4 260.075C805.1 279.602 832.9 302.511 853.9 328.257C854 328.366 854 328.366 854.1 328.475C884.8 366.22 901 410.184 901 455.784C901 501.384 884.7 545.457 853.9 583.311C833 608.948 805.3 631.966 771.5 651.493Z" fill="#231F20"/>
<path d="M493.8 192.439C493.7 192.548 493.6 192.657 493.5 192.657C492.6 193.42 491.7 194.293 490.7 195.057C490.2 195.493 489.7 195.929 489.1 196.475C488.2 197.239 487.3 198.002 486.4 198.875C485.8 199.42 485.3 199.857 484.7 200.402C483.8 201.166 483 201.929 482.1 202.802C481.6 203.239 481 203.784 480.5 204.329C478.9 205.748 477.4 207.275 475.8 208.802C475.2 209.457 474.5 210.002 473.9 210.657C473.1 211.42 472.3 212.184 471.5 213.057C470.9 213.711 470.2 214.257 469.6 214.911C468.8 215.784 467.9 216.548 467.1 217.42C466.5 217.966 466 218.511 465.4 219.166C464.5 220.039 463.6 221.02 462.7 221.893C462.6 221.893 462.6 222.002 462.5 222.002C471.4 231.602 480.2 241.748 488.9 252.439C490.9 252.548 492.9 252.657 494.9 252.766C495.2 252.766 495.6 252.766 495.9 252.766C498.6 252.875 501.4 253.093 504.1 253.202C504.9 253.202 505.7 253.311 506.5 253.311C508.5 253.42 510.4 253.529 512.4 253.748C513.3 253.857 514.3 253.857 515.2 253.966C517.1 254.075 518.9 254.293 520.8 254.402C521.7 254.511 522.6 254.511 523.5 254.62C525.8 254.839 528.2 255.057 530.5 255.275C530.9 255.275 531.2 255.384 531.6 255.384C534.3 255.602 536.9 255.929 539.6 256.257C540.4 256.366 541.2 256.475 542 256.584C543.3 256.693 544.5 256.911 545.8 257.02C529.1 233.566 511.6 211.857 493.8 192.439Z" fill="#F9F4DA"/>
<path d="M213.3 281.02C213.7 285.275 214.2 289.529 214.8 294.22C227.5 289.093 240.8 284.293 254.5 280.039C254.3 278.62 254.2 277.42 254.1 276.22C254.1 276.111 254.1 276.002 254.1 275.893C247.3 206.839 259.6 156.984 287.9 139.202C296.1 133.966 305.9 131.348 316.9 131.348C343.7 131.348 377.2 146.729 413.6 175.857C414.6 176.62 415.5 177.384 416.5 178.148C416.6 178.039 416.6 178.039 416.7 177.929C417.8 176.729 418.9 175.639 420 174.439C420.3 174.22 420.5 173.893 420.8 173.675C425.6 168.657 430.5 163.748 435.4 159.057C435.6 158.839 435.9 158.62 436.1 158.402C437.2 157.311 438.3 156.329 439.4 155.239C439.7 155.02 439.9 154.693 440.2 154.475C442.6 152.184 445.1 150.002 447.5 147.82C444.2 144.984 440.9 142.366 437.8 139.857C393.8 104.729 352.3 86.729 316.6 86.729C298.6 86.729 282 91.3108 267.4 100.584C223.6 127.857 204.4 192.002 213.3 281.02Z" fill="#F9F4DA"/>
<path d="M602.9 442.693C610.4 423.929 617.2 405.166 623 386.729C618.3 377.129 613.6 367.966 609 359.129C604.2 350.075 599.2 341.02 594.1 332.184C586.8 330.657 579.5 329.239 572 327.929C571.6 327.82 571.2 327.82 570.8 327.711C568.5 327.275 566.3 326.948 564 326.62C563.5 326.511 563 326.511 562.5 326.402C560 325.966 557.6 325.639 555.1 325.311C554.9 325.311 554.7 325.202 554.5 325.202C549.6 324.439 544.6 323.893 539.6 323.239C551.5 342.002 562.8 361.529 573.4 381.602C584.1 401.566 594 422.075 602.9 442.693Z" fill="#F9F4DA"/>
<path d="M455.5 604.366C434.2 604.366 413 603.493 392.2 601.639C393.2 603.166 394.3 604.693 395.3 606.22C395.6 606.657 395.9 607.093 396.1 607.42C397.7 609.711 399.3 612.002 400.9 614.293C401.3 614.839 401.7 615.493 402.1 616.039C403.3 617.784 404.5 619.42 405.7 621.057C406.3 621.82 406.8 622.584 407.4 623.348C408.5 624.875 409.6 626.402 410.7 627.82C411.3 628.584 411.8 629.348 412.4 630.111C413.6 631.748 414.8 633.275 416 634.911C416.5 635.566 416.9 636.111 417.4 636.766C419 638.948 420.7 641.02 422.3 643.093C422.7 643.529 423 643.966 423.4 644.402C424.5 645.711 425.5 647.02 426.6 648.329C436.4 648.657 446.1 648.875 455.5 648.875C464.8 648.875 474.5 648.657 484.4 648.329C484.6 648.111 484.7 647.893 484.9 647.784C489 642.657 493.1 637.311 497.1 631.966C497.3 631.748 497.5 631.42 497.7 631.202C499 629.566 500.2 627.82 501.4 626.184C501.7 625.748 502 625.42 502.2 624.984C503.5 623.239 504.7 621.493 506 619.748C506.1 619.529 506.3 619.311 506.4 619.202C510.6 613.42 514.7 607.42 518.8 601.42C498 603.493 476.8 604.366 455.5 604.366Z" fill="#F9F4DA"/>
<path d="M341.4 638.62C340.5 637.311 339.7 636.002 338.8 634.802C337.9 633.384 337 631.966 336.1 630.657C334.9 628.802 333.7 626.948 332.5 625.093C331.7 623.784 330.9 622.584 330.1 621.275C329.3 620.075 328.5 618.766 327.7 617.566C327 616.475 326.3 615.275 325.5 614.075C324.7 612.766 323.9 611.457 323 610.148C322.4 609.166 321.7 608.075 321.1 607.093C320.2 605.675 319.3 604.257 318.5 602.729C318.3 602.293 318 601.857 317.8 601.529C315.5 597.711 313.3 593.893 311 590.075C310.9 589.857 310.8 589.748 310.7 589.529C297.9 586.693 285.3 583.42 273.3 579.82C270 594.984 267.4 609.711 265.5 623.893C289.9 630.766 315.8 636.439 342.8 640.584C342.3 639.929 341.9 639.275 341.4 638.62Z" fill="#F9F4DA"/>
<path d="M568.2 640.584C595.2 636.439 621.1 630.657 645.4 623.566C645.3 623.129 645.3 622.584 645.2 622.148C645.2 621.82 645.1 621.493 645.1 621.166C644.9 619.42 644.6 617.566 644.3 615.82C644.2 615.493 644.2 615.057 644.1 614.729C643.8 612.766 643.5 610.802 643.2 608.948C643.2 608.839 643.2 608.62 643.1 608.511C642.4 604.148 641.6 599.675 640.7 595.202C640.7 595.093 640.6 594.875 640.6 594.766C640.2 592.693 639.8 590.62 639.4 588.548C639.4 588.329 639.3 588.111 639.3 587.893C638.7 585.166 638.2 582.439 637.6 579.711C625.6 583.311 613 586.584 600.3 589.42C590.1 606.875 579.3 624.111 568.2 640.584Z" fill="#F9F4DA"/>
<path d="M458.6 151.857C445.8 162.984 433 175.529 420.3 189.166C398.9 212.184 377.9 238.366 357.9 267.166C357.9 267.166 357.9 267.166 357.9 267.275C344 287.239 330.6 308.402 318.1 330.22C312.5 339.929 307.2 349.639 302.1 359.129C297.4 368.075 292.7 377.348 288.1 386.62C293.9 405.057 300.6 423.82 308.2 442.584C317.2 422.075 327 401.457 337.7 381.493C350.2 357.82 363.7 334.911 377.8 313.311C391.5 292.257 405.9 272.293 420.6 254.075C430.9 241.202 441.5 229.093 452.1 217.857C465.1 204.111 478.2 191.675 491.2 180.875C493.2 179.129 495.4 177.384 497.5 175.748C533.9 146.62 567.4 131.239 594.2 131.239C605.2 131.239 615 133.857 623.2 139.093C651.6 156.984 663.9 206.948 656.9 276.22C656.8 277.529 656.6 278.839 656.5 280.039C657.2 280.257 657.8 280.475 658.4 280.693C658.7 280.802 659 280.911 659.3 281.02C661.1 281.566 662.8 282.111 664.6 282.766C664.9 282.875 665.3 282.984 665.6 283.093C669.6 284.402 673.5 285.711 677.3 287.129C677.9 287.348 678.6 287.566 679.2 287.784C680.4 288.22 681.6 288.657 682.8 289.093C683.6 289.42 684.4 289.639 685.1 289.966C686.2 290.402 687.3 290.839 688.4 291.275C689.2 291.602 689.9 291.82 690.7 292.148C692.3 292.802 693.8 293.348 695.4 294.002C695.6 294.111 695.8 294.22 696.1 294.22C696.7 289.639 697.2 285.275 697.6 281.02C706.5 192.002 687.3 127.857 643.6 100.365C643.5 100.256 643.4 100.256 643.3 100.147C599.6 72.8745 539.2 86.8381 473.1 139.639C468.6 143.239 463.8 147.275 458.6 151.857Z" fill="#F9F4DA"/>
<path d="M490.7 722.511C512.1 699.493 533.1 673.202 553.2 644.511C567.1 624.548 580.5 603.384 593 581.566C598.6 571.857 604 562.148 609 552.548C614.1 542.948 619.1 533.02 624 522.875C624.3 522.22 624.6 521.675 624.9 521.02C635.6 498.766 645.5 476.184 654.1 453.82C666.3 422.184 676.2 390.875 683.7 360.439C671.5 355.093 658.5 350.184 644.8 345.711C641.5 359.675 637.5 373.857 633.1 388.039C625.9 411.166 617.3 434.729 607.5 458.184C597.4 482.402 585.9 506.62 573.4 530.184C560.9 553.857 547.4 576.766 533.3 598.366C519.6 619.42 505.2 639.275 490.5 657.602C480.2 670.366 469.6 682.584 459 693.711C459 693.711 459 693.711 459 693.82C446.1 707.457 432.9 719.893 419.9 730.802C419.9 730.802 419.8 730.802 419.8 730.911C417.8 732.548 415.7 734.293 413.6 735.929C362.1 777.057 316.3 790.475 287.9 772.584C259.5 754.693 247.2 704.729 254.2 635.457C254.5 632.402 254.8 629.457 255.1 626.948C257.2 609.275 260.5 590.62 264.9 571.529C268.3 556.584 272.5 541.202 277.2 525.929C268.3 507.384 260 488.62 252.5 469.966C241.8 499.093 233 528.002 226.3 556.039C221.8 574.802 218.3 593.238 215.9 610.802C214.9 617.893 214.1 624.439 213.5 630.657C204.6 719.675 223.8 783.82 267.5 811.311C282 820.475 298.6 825.166 316.7 825.166C352.5 825.166 394.5 806.839 438 772.039C442.6 768.329 447.4 764.402 452.6 759.82C465.2 748.584 478.1 736.039 490.7 722.511Z" fill="#F9F4DA"/>
<path d="M831.8 455.784C831.8 400.802 790.6 350.62 715.7 314.62C715.6 314.62 715.4 314.511 715.3 314.511C710 312.002 704.3 309.384 698.3 306.875C683.1 300.439 666.7 294.439 649.6 289.311C620.6 280.584 589.2 273.82 556.4 269.348C533.7 266.184 510.1 264.111 486.5 263.239C475.9 262.802 465.5 262.584 455.5 262.584C446.2 262.584 436.5 262.802 426.6 263.129C414.9 277.857 403.3 293.566 392.2 310.039C437.4 306.111 484.8 306.439 529.7 311.129C553.2 313.529 576.2 317.239 598.2 322.039C613.6 325.42 628.5 329.348 642.7 333.711C660 339.057 676.5 345.275 691.6 352.148C694 353.239 696.4 354.329 698.8 355.529C757.3 383.675 790.8 420.22 790.8 456.002C790.8 491.784 757.3 528.329 698.8 556.366C697.7 556.911 696.6 557.457 695.5 557.893C699 573.057 701.9 588.002 704.1 602.511C708 600.766 711.8 599.02 715.3 597.384C790.5 561.057 831.8 510.875 831.8 455.784Z" fill="#F9F4DA"/>
<path d="M719.4 304.475C719.3 304.366 719.1 304.366 719 304.257C714.8 302.293 710.3 300.22 705.7 298.148C706.5 292.475 707.1 287.239 707.6 282.111C716.9 188.729 696.1 120.875 648.9 90.9836C648.8 90.8745 648.7 90.8745 648.6 90.7654C601.2 60.8745 536.8 75.1654 467.2 130.693C463.4 133.748 459.5 136.911 455.4 140.511C451.4 137.02 447.4 133.748 443.6 130.693C374 75.0563 309.6 60.8745 262.2 90.7654C214.8 120.548 193.9 188.511 203.2 282.111C203.7 287.239 204.3 292.475 205.1 298.148C200.3 300.22 195.7 302.293 191.4 304.366C112.5 342.329 69 396.002 69 455.675C69 515.348 112.5 569.129 191.4 606.984C195.8 609.057 200.3 611.129 205.1 613.202C204.4 618.875 203.7 624.111 203.2 629.239C193.8 722.839 214.8 790.693 262.1 820.584C278.2 830.73 296.4 835.857 316.3 835.857C354.3 835.857 398.3 816.766 443.5 780.657C447.3 777.602 451.2 774.439 455.3 770.839C459.3 774.329 463.3 777.602 467.1 780.657C512.3 816.766 556.3 835.857 594.3 835.857C614.2 835.857 632.4 830.73 648.5 820.584C695.9 790.802 716.8 722.839 707.5 629.239C707.5 629.129 707.5 629.02 707.5 628.911C707 623.893 706.4 618.766 705.6 613.202C710.4 611.129 715 609.057 719.3 606.984C798.2 569.02 841.7 515.348 841.7 455.675C841.8 396.111 798.3 342.329 719.4 304.475ZM473.2 771.929C470.1 769.42 466.8 766.693 463.5 763.966C473.9 754.584 484.3 744.439 494.6 733.529C495.5 734.293 496.5 735.057 497.5 735.82C534 765.057 567.7 780.22 594.3 780.22C605.2 780.22 614.9 777.711 623.2 772.475C651.6 754.584 663.9 704.62 656.9 635.457C656.7 632.948 656.4 630.22 656 626.948C653.9 609.275 650.6 590.62 646.2 571.529C642.8 556.584 638.6 541.202 633.9 525.929C642.8 507.384 651.1 488.62 658.6 469.966C669.3 499.093 678.1 528.002 684.8 556.039C689.3 574.802 692.8 593.239 695.2 610.802C696.2 618.002 697 624.439 697.6 630.657C697.6 630.766 697.6 630.875 697.6 630.984C706.4 719.784 687.2 783.929 643.6 811.42C629.1 820.584 612.5 825.275 594.4 825.275C558.6 825.166 516.7 806.729 473.2 771.929ZM316.6 825.057C298.5 825.057 282 820.366 267.4 811.202C223.7 783.711 204.5 719.457 213.4 630.548C214 624.329 214.8 617.784 215.8 610.693C218.3 593.129 221.8 574.693 226.2 555.929C232.9 527.893 241.7 499.093 252.4 469.857C259.9 488.511 268.2 507.275 277.1 525.82C272.4 541.202 268.3 556.475 264.8 571.42C260.4 590.511 257.1 609.166 255 626.839C254.7 629.348 254.4 632.402 254.1 635.348C247.2 704.62 259.5 754.584 287.8 772.475C316.2 790.366 362 776.948 413.5 735.82C415.6 734.184 417.7 732.439 419.7 730.802C419.7 730.802 419.8 730.802 419.8 730.693C432.8 719.784 446 707.348 458.9 693.711C458.9 693.711 458.9 693.711 458.9 693.602C469.5 682.475 480 670.257 490.4 657.493C505.1 639.275 519.5 619.311 533.2 598.257C547.3 576.657 560.8 553.748 573.3 530.075C585.8 506.511 597.3 482.184 607.4 458.075C617.2 434.62 625.8 411.057 633 387.929C637.4 373.748 641.3 359.457 644.7 345.602C658.3 349.966 671.4 354.984 683.6 360.329C676.1 390.657 666.2 422.075 654 453.711C645.4 476.075 635.6 498.657 624.8 520.911C624.5 521.566 624.2 522.111 623.9 522.766C619 532.802 614 542.839 608.9 552.439C603.8 562.039 598.4 571.748 592.9 581.457C580.3 603.384 566.9 624.548 553.1 644.402C533.1 673.202 512.1 699.384 490.6 722.402C478 735.93 465.1 748.475 452.3 759.711C447.1 764.184 442.4 768.22 437.7 771.929C394.3 806.729 352.4 825.057 316.6 825.057ZM316.6 86.5108C352.3 86.5108 393.8 104.511 437.8 139.639C440.9 142.148 444.2 144.875 447.5 147.602C445.1 149.784 442.6 152.075 440.2 154.257C439.9 154.475 439.7 154.802 439.4 155.02C438.3 156.111 437.2 157.093 436.1 158.184C435.9 158.402 435.6 158.62 435.4 158.839C430.5 163.529 425.6 168.439 420.8 173.457C420.5 173.675 420.3 174.002 420 174.22C418.9 175.42 417.8 176.511 416.7 177.711C416.6 177.82 416.6 177.82 416.5 177.929C415.6 177.166 414.6 176.402 413.6 175.639C377.2 146.511 343.8 131.129 316.9 131.129C305.9 131.129 296.1 133.748 287.9 138.984C259.6 156.766 247.3 206.62 254.1 275.675C254.1 275.784 254.1 275.893 254.1 276.002C254.2 277.202 254.3 278.511 254.5 279.82C240.8 284.075 227.5 288.766 214.8 294.002C214.2 289.42 213.7 285.057 213.3 280.802C204.4 191.784 223.6 127.639 267.3 100.147C282 91.0926 298.6 86.5108 316.6 86.5108ZM643.4 100.147C643.5 100.256 643.6 100.256 643.7 100.365C687.4 127.857 706.6 192.111 697.7 281.02C697.3 285.275 696.8 289.639 696.2 294.22C696 294.111 695.8 294.002 695.5 294.002C694 293.348 692.4 292.802 690.8 292.148C690 291.82 689.3 291.602 688.5 291.275C687.4 290.839 686.3 290.402 685.2 289.966C684.4 289.639 683.6 289.42 682.9 289.093C681.7 288.657 680.5 288.22 679.3 287.784C678.7 287.566 678 287.348 677.4 287.129C673.5 285.711 669.6 284.402 665.7 283.093C665.4 282.984 665 282.875 664.7 282.766C662.9 282.22 661.2 281.566 659.4 281.02C659.1 280.911 658.8 280.802 658.5 280.693C657.8 280.475 657.2 280.257 656.6 280.039C656.7 278.839 656.9 277.529 657 276.22C663.9 206.948 651.6 156.984 623.3 139.093C615.1 133.857 605.3 131.239 594.3 131.239C567.5 131.239 534 146.62 497.6 175.748C495.5 177.493 493.3 179.239 491.3 180.875C478.3 191.675 465.2 204.111 452.2 217.857C441.6 228.984 431 241.202 420.7 254.075C406 272.293 391.6 292.257 377.9 313.311C363.8 334.911 350.3 357.82 337.8 381.493C327.2 401.566 317.3 422.075 308.3 442.584C300.8 423.82 294 405.057 288.2 386.62C292.8 377.239 297.5 367.966 302.2 359.129C307.3 349.529 312.6 339.82 318.2 330.22C330.8 308.402 344.2 287.129 358 267.275C358 267.275 358 267.275 358 267.166C378 238.475 399 212.184 420.4 189.166C433 175.639 445.9 163.093 458.7 151.857C463.9 147.275 468.7 143.348 473.3 139.639C539.2 86.8381 599.7 72.7654 643.4 100.147ZM646.9 636.657C653.4 701.457 642.9 747.493 618.1 763.093C593.3 778.693 551.5 765.602 503.3 727.093C502.8 726.657 502.3 726.22 501.7 725.784C521.6 703.966 541.1 679.42 559.7 652.802C590.1 648.548 619.3 642.329 646.6 634.475C646.8 635.239 646.9 636.002 646.9 636.657ZM639.4 587.784C639.4 588.002 639.5 588.22 639.5 588.439C639.9 590.511 640.3 592.584 640.7 594.657C640.7 594.766 640.8 594.984 640.8 595.093C641.7 599.566 642.4 604.039 643.2 608.402C643.2 608.511 643.2 608.729 643.3 608.839C643.6 610.802 643.9 612.766 644.2 614.62C644.3 614.948 644.3 615.384 644.4 615.711C644.7 617.457 644.9 619.311 645.2 621.057C645.2 621.384 645.3 621.711 645.3 622.039C645.4 622.475 645.4 623.02 645.5 623.457C621.2 630.548 595.3 636.329 568.3 640.475C579.4 624.002 590.1 606.766 600.4 589.093C613.2 586.257 625.7 582.984 637.7 579.384C638.2 582.329 638.8 585.057 639.4 587.784ZM607.6 576.439C611.1 570.22 614.4 564.002 617.7 557.893C620.9 551.784 624.2 545.457 627.3 539.129C630.2 549.166 632.9 559.093 635.2 568.911C626.2 571.639 617 574.148 607.6 576.439ZM539.7 256.148C537 255.82 534.4 255.602 531.7 255.275C531.3 255.275 531 255.166 530.6 255.166C528.3 254.948 525.9 254.729 523.6 254.511C522.7 254.402 521.8 254.402 520.9 254.293C519 254.184 517.2 253.966 515.3 253.857C514.4 253.748 513.4 253.748 512.5 253.639C510.5 253.529 508.6 253.311 506.6 253.202C505.8 253.202 505 253.093 504.2 253.093C501.5 252.875 498.7 252.766 496 252.657C495.7 252.657 495.3 252.657 495 252.657C493 252.548 491 252.439 489 252.329C480.3 241.639 471.5 231.384 462.6 221.893C462.7 221.893 462.7 221.784 462.8 221.784C463.7 220.802 464.6 219.929 465.5 219.057C466.1 218.511 466.6 217.857 467.2 217.311C468 216.439 468.9 215.675 469.7 214.802C470.3 214.148 471 213.602 471.6 212.948C472.4 212.184 473.2 211.311 474 210.548C474.6 209.893 475.3 209.348 475.9 208.693C477.5 207.166 479 205.748 480.6 204.22C481.1 203.675 481.7 203.239 482.2 202.693C483.1 201.929 483.9 201.057 484.8 200.293C485.4 199.748 485.9 199.311 486.5 198.766C487.4 198.002 488.3 197.239 489.2 196.366C489.7 195.929 490.2 195.493 490.8 194.948C491.7 194.184 492.6 193.311 493.6 192.548C493.7 192.439 493.8 192.329 493.9 192.329C511.7 211.748 529.2 233.348 546 256.802C544.7 256.693 543.5 256.475 542.2 256.366C541.3 256.366 540.5 256.257 539.7 256.148ZM455.5 229.42C462.1 236.511 468.7 244.039 475.2 251.784C468.5 251.566 461.9 251.566 455.5 251.566C449.1 251.566 442.5 251.675 435.8 251.784C442.3 244.039 448.9 236.511 455.5 229.42ZM559.8 258.766C541.2 232.148 521.7 207.711 501.8 185.784C502.3 185.348 502.8 184.911 503.4 184.475C537.6 157.202 569.8 142.148 594.2 142.148C603.4 142.148 611.5 144.329 618.2 148.475C643 164.075 653.5 210.22 647 274.911C646.9 275.675 646.9 276.329 646.8 277.093C619.4 269.239 590.3 263.02 559.8 258.766ZM554.5 325.093C554.7 325.093 554.9 325.202 555.1 325.202C557.6 325.529 560.1 325.966 562.5 326.293C563 326.402 563.5 326.402 564 326.511C566.3 326.839 568.6 327.275 570.8 327.602C571.2 327.711 571.6 327.711 572 327.82C579.5 329.129 586.9 330.548 594.1 332.075C599.2 341.02 604.2 350.075 609 359.02C613.6 367.748 618.3 377.02 623 386.62C617.2 405.057 610.5 423.82 602.9 442.584C593.9 421.966 584.1 401.457 573.4 381.384C562.8 361.311 551.4 341.784 539.6 323.02C544.6 323.675 549.6 324.329 554.5 325.093ZM617.6 353.675C614.3 347.566 611 341.348 607.5 335.129C617 337.42 626.2 339.929 635.1 342.548C632.7 352.366 630.1 362.402 627.2 372.439C624.1 366.002 620.8 359.675 617.6 353.675ZM526.5 321.602C540 342.439 552.9 364.366 564.8 386.948C576.7 409.529 587.7 432.657 597.5 455.784C587.7 478.911 576.8 502.039 564.8 524.62C552.8 547.202 539.9 569.239 526.5 589.966C480.1 594.657 430.9 594.657 384.5 589.966C371 569.129 358.1 547.202 346.2 524.62C334.3 502.039 323.3 478.911 313.5 455.784C323.3 432.657 334.3 409.529 346.2 386.948C358.2 364.366 371.1 342.329 384.5 321.602C431 317.02 480 317.02 526.5 321.602ZM455.5 682.148C448.9 675.057 442.3 667.529 435.8 659.784C442.5 660.002 449.1 660.002 455.5 660.002C461.9 660.002 468.5 659.893 475.2 659.784C468.7 667.529 462.1 675.057 455.5 682.148ZM264.1 636.657C264.2 635.893 264.2 635.239 264.3 634.584C291.6 642.439 320.7 648.657 351.2 652.911C369.8 679.529 389.3 703.966 409.2 725.893C408.7 726.329 408.2 726.766 407.7 727.093C359.5 765.602 317.7 778.693 292.9 763.093C268.1 747.493 257.6 701.348 264.1 636.657ZM506 620.075C504.8 621.82 503.5 623.566 502.2 625.311C501.9 625.748 501.6 626.075 501.4 626.511C500.2 628.257 498.9 629.893 497.7 631.529C497.5 631.748 497.3 632.075 497.1 632.293C493.1 637.639 489 642.984 484.9 648.111C484.7 648.329 484.6 648.548 484.4 648.657C474.6 648.984 464.9 649.202 455.5 649.202C446.2 649.202 436.5 648.984 426.6 648.657C425.5 647.348 424.5 646.039 423.4 644.729C423 644.293 422.7 643.857 422.3 643.42C420.7 641.348 419 639.166 417.4 637.093C416.9 636.548 416.5 635.893 416 635.239C414.8 633.711 413.6 632.075 412.4 630.439C411.8 629.675 411.3 628.911 410.7 628.148C409.6 626.62 408.5 625.202 407.4 623.675C406.8 622.911 406.3 622.148 405.7 621.384C404.5 619.748 403.3 618.002 402.1 616.366C401.7 615.82 401.3 615.166 400.9 614.62C399.3 612.329 397.7 610.039 396.1 607.748C395.8 607.311 395.5 606.875 395.3 606.548C394.3 605.02 393.2 603.493 392.2 601.966C413 603.82 434.2 604.693 455.5 604.693C476.8 604.693 498 603.82 518.8 601.966C514.7 607.966 510.6 613.966 506.4 619.748C506.3 619.639 506.1 619.857 506 620.075ZM448.3 689.784C438 700.475 427.6 710.293 417.2 719.13C396.8 696.875 376.9 671.784 357.8 644.511C343.9 624.548 330.5 603.384 318 581.566C312.5 571.966 307.1 562.257 302 552.548C297 543.166 292 533.239 287 522.875C275.9 499.966 265.8 476.729 256.9 453.711C244.7 422.075 234.8 390.657 227.3 360.329C227.5 360.22 227.7 360.111 227.9 360.111C228.8 359.675 229.7 359.348 230.6 358.911C231.4 358.584 232.3 358.257 233.1 357.82C234 357.493 234.9 357.057 235.8 356.729C236.7 356.402 237.6 355.966 238.4 355.639C239.3 355.311 240.2 354.875 241.1 354.548C242.2 354.111 243.4 353.675 244.5 353.239C245.8 352.693 247.1 352.257 248.4 351.711C249.4 351.275 250.5 350.948 251.6 350.511C252.5 350.184 253.4 349.857 254.3 349.529C255.3 349.202 256.2 348.875 257.2 348.548C258.1 348.22 259 347.893 260 347.566C261 347.239 262 346.911 263 346.584C263.9 346.257 264.8 345.929 265.7 345.711C265.9 345.602 266 345.602 266.2 345.493C269.5 359.457 273.5 373.639 277.9 387.82C285.1 410.839 293.7 434.511 303.5 457.966C313.6 482.184 325.1 506.402 337.6 529.966C350.1 553.529 363.6 576.548 377.7 598.148C391.4 619.202 405.8 639.166 420.5 657.384C420.5 657.384 420.5 657.493 420.6 657.493C429.7 668.948 439 679.748 448.3 689.784ZM273.4 579.602C285.4 583.202 297.9 586.475 310.8 589.311C310.9 589.529 311 589.639 311.1 589.857C313.3 593.675 315.6 597.493 317.9 601.311C318.1 601.748 318.4 602.184 318.6 602.511C319.5 603.929 320.4 605.457 321.2 606.875C321.8 607.857 322.5 608.948 323.1 609.929C323.9 611.239 324.7 612.548 325.6 613.857C326.3 615.057 327 616.148 327.8 617.348C328.6 618.548 329.4 619.857 330.2 621.057C331 622.366 331.8 623.566 332.6 624.875C333.8 626.729 335 628.584 336.2 630.439C337.1 631.857 338 633.275 338.9 634.584C339.8 635.893 340.6 637.202 341.5 638.402C342 639.057 342.4 639.82 342.9 640.475C315.9 636.329 290 630.548 265.7 623.457C267.5 609.493 270.1 594.657 273.4 579.602ZM275.8 342.657C284.8 339.929 294 337.529 303.4 335.239C299.9 341.457 296.6 347.566 293.3 353.784C290.1 359.893 286.8 366.22 283.7 372.548C280.8 362.402 278.2 352.475 275.8 342.657ZM246.9 455.784C235.1 486.657 225.4 517.311 218 547.093C217.4 546.766 216.8 546.548 216.2 546.22C161.5 519.929 130.2 486.984 130.2 455.784C130.2 424.584 161.5 391.639 216.2 365.348C216.8 365.02 217.4 364.802 218 364.475C225.4 394.257 235.1 424.911 246.9 455.784ZM293.4 557.893C296.7 564.111 300 570.22 303.5 576.439C294 574.148 284.8 571.639 275.9 569.02C278.3 559.202 280.9 549.166 283.8 539.239C286.9 545.566 290.2 551.893 293.4 557.893ZM264.3 277.093C264.2 276.439 264.2 275.893 264.1 275.348C264.1 275.239 264.1 275.129 264.1 274.911C257.6 210.111 268.1 164.075 292.9 148.475C299.6 144.22 307.7 142.148 316.9 142.148C341.2 142.148 373.5 157.202 407.7 184.475C408.2 184.911 408.7 185.348 409.3 185.784C389.4 207.602 369.9 232.148 351.3 258.766C320.7 263.02 291.5 269.239 264.3 277.093ZM693 364.475C693.6 364.802 694.2 365.02 694.8 365.348C749.5 391.639 780.8 424.584 780.8 455.784C780.8 486.984 749.5 519.929 694.8 546.22C694.2 546.548 693.6 546.766 693 547.093C685.6 517.311 675.9 486.657 664.1 455.784C675.9 424.911 685.6 394.257 693 364.475ZM212.6 306.766C227.9 300.329 244.2 294.439 261.1 289.311C261.2 289.311 261.3 289.311 261.4 289.202C286.9 281.457 314.3 275.348 342.8 270.875C331.7 287.348 320.9 304.584 310.7 322.257C296.2 325.529 281.9 329.239 268.3 333.493C251 338.839 234.5 345.057 219.4 351.929C217.2 352.911 214.7 354.111 212.1 355.311C153.7 383.348 120.1 420.002 120.1 455.675C120.1 491.457 153.6 528.002 212.1 556.148C213.2 556.693 214.3 557.129 215.3 557.675C211.8 572.839 208.9 587.784 206.7 602.293C202.8 600.548 199 598.802 195.5 597.166C120.4 561.057 79.1 510.875 79.1 455.784C79.1 400.693 120.5 350.511 195.5 314.402C200.9 311.893 206.6 309.275 212.6 306.766ZM704.2 602.293C702 587.893 699.1 572.948 695.6 557.675C696.7 557.129 697.8 556.693 698.9 556.148C757.3 528.111 790.9 491.457 790.9 455.784C790.9 420.002 757.4 383.457 698.9 355.311C696.5 354.111 694 353.02 691.7 351.929C676.6 345.057 660.1 338.839 642.8 333.493C628.7 329.129 613.7 325.202 598.3 321.82C576.4 317.02 553.4 313.42 529.8 310.911C484.9 306.22 437.5 305.893 392.3 309.82C403.4 293.239 415 277.529 426.7 262.911C436.5 262.584 446.2 262.366 455.6 262.366C465.6 262.366 476.1 262.584 486.6 263.02C510.3 264.002 533.8 266.075 556.5 269.129C589.3 273.602 620.7 280.366 649.7 289.093C666.8 294.22 683.2 300.111 698.4 306.657C704.4 309.166 710.1 311.784 715.4 314.293C715.5 314.402 715.6 314.402 715.8 314.402C790.7 350.511 831.9 400.584 831.9 455.566C831.9 510.657 790.5 560.839 715.5 596.948C711.8 598.911 708.1 600.548 704.2 602.293Z" fill="#231F20"/>
<path d="M420.6 657.602C405.8 639.275 391.4 619.311 377.7 598.257C363.5 576.548 350 553.639 337.6 530.075C325.1 506.511 313.6 482.293 303.5 458.075C293.7 434.62 285.1 411.057 277.9 387.929C273.5 373.748 269.6 359.457 266.2 345.602C266 345.711 265.9 345.711 265.7 345.82C264.8 346.148 263.9 346.475 263 346.693C262 347.02 261 347.348 260 347.675C259.1 348.002 258.2 348.329 257.2 348.657C256.2 348.984 255.3 349.311 254.3 349.639C253.4 349.966 252.5 350.293 251.6 350.62C250.5 351.057 249.5 351.384 248.4 351.82C247.1 352.257 245.8 352.802 244.5 353.348C243.4 353.784 242.2 354.22 241.1 354.657C240.2 354.984 239.3 355.42 238.4 355.748C237.5 356.075 236.6 356.402 235.8 356.839C234.9 357.166 234 357.602 233.1 357.929C232.3 358.257 231.4 358.584 230.6 359.02C229.7 359.457 228.8 359.784 227.9 360.22C227.7 360.329 227.5 360.439 227.3 360.439C234.8 390.766 244.7 422.184 256.9 453.82C265.8 476.839 275.9 500.075 287 522.984C292 533.239 297 543.275 302 552.657C307.1 562.366 312.5 572.075 318 581.675C330.6 603.493 344 624.766 357.8 644.62C376.8 671.893 396.8 696.984 417.2 719.239C427.5 710.402 438 700.584 448.3 689.893C439 679.748 429.7 668.948 420.6 657.602Z" fill="#F9F4DA"/>
<path d="M697.7 630.875C697.7 630.766 697.7 630.657 697.7 630.548C697.1 624.329 696.3 617.784 695.3 610.693C692.8 593.129 689.3 574.693 684.9 555.929C678.2 527.893 669.4 499.093 658.7 469.857C651.2 488.511 642.9 507.275 634 525.82C638.7 541.202 642.8 556.475 646.3 571.42C650.7 590.511 654 609.166 656.1 626.839C656.5 630.22 656.8 632.948 657 635.348C663.9 704.62 651.6 754.584 623.3 772.366C615.1 777.602 605.3 780.111 594.4 780.111C567.8 780.111 534.1 764.948 497.6 735.711C496.6 734.948 495.7 734.184 494.7 733.42C484.4 744.329 474 754.475 463.6 763.857C466.9 766.693 470.2 769.311 473.3 771.82C516.8 806.62 558.7 824.948 594.6 824.948C612.7 824.948 629.2 820.257 643.8 811.093C687.3 783.82 706.5 719.784 697.7 630.875Z" fill="#F9F4DA"/>
<path d="M79.2 455.784C79.2 510.875 120.6 561.057 195.6 597.166C199.1 598.911 202.9 600.548 206.8 602.293C209 587.893 211.9 572.948 215.4 557.675C214.3 557.129 213.2 556.693 212.2 556.148C153.7 528.002 120.2 491.457 120.2 455.675C120.2 419.893 153.7 383.348 212.2 355.311C214.8 354.111 217.3 352.911 219.5 351.929C234.6 345.057 251.1 338.839 268.4 333.493C282 329.239 296.2 325.529 310.8 322.257C321 304.584 331.8 287.348 342.9 270.875C314.3 275.348 287 281.457 261.5 289.202C261.4 289.202 261.3 289.202 261.2 289.311C244.3 294.439 228 300.329 212.7 306.766C206.7 309.275 201 311.893 195.7 314.402C120.6 350.511 79.2 400.693 79.2 455.784Z" fill="#F9F4DA"/>
</g>
<defs>
<clipPath id="clip0_5_78">
<rect width="912" height="912" fill="white"/>
</clipPath>
</defs>
</svg>
