<svg width="100" height="100" viewBox="0 0 100 100" fill="none" xmlns="http://www.w3.org/2000/svg">
<g clip-path="url(#clip0_3_83)">
<path opacity="0.995" fill-rule="evenodd" clip-rule="evenodd" d="M66.8945 4.58985C71.6004 5.25633 74.7254 7.86049 76.2695 12.4023C75.7816 12.1265 75.2609 11.8987 74.707 11.7188C71.9084 11.6211 69.1088 11.5886 66.3086 11.6211C52.365 11.5253 38.4326 11.623 24.5117 11.9141C23.5459 12.4894 22.8623 13.3032 22.4609 14.3555C17.5781 26.3346 12.6953 38.3139 7.8125 50.293C7.67455 50.7756 7.73965 51.2314 8.00781 51.6602C14.7127 61.7508 23.0135 70.3119 32.9102 77.3438C37.0479 80.292 41.3447 82.9938 45.8008 85.4492C46.9283 86.177 48.1002 86.8605 49.3164 87.5C49.707 87.6303 50.0977 87.6303 50.4883 87.5C62.3383 81.3932 72.9178 73.548 82.2266 63.9648C85.2543 60.5818 88.0863 57.0662 90.7227 53.418C90.1811 54.8914 89.4322 56.2586 88.4766 57.5195C78.7916 70.9826 66.7799 81.8225 52.4414 90.0391C50.2539 91.2955 48.0402 92.5 45.8008 93.6523C31.4363 86.3566 18.9689 76.591 8.39844 64.3555C5.3217 60.477 2.48967 56.4404 -0.0976562 52.2461C-0.0976562 51.5951 -0.0976562 50.9439 -0.0976562 50.293C5.49396 37.0057 10.9953 23.6592 16.4062 10.2539C17.996 7.2992 20.4375 5.44373 23.7305 4.6875C38.1184 4.58985 52.5064 4.55729 66.8945 4.58985Z" fill="#FEDF45"/>
<path fill-rule="evenodd" clip-rule="evenodd" d="M66.8945 4.58985C70.2242 4.50651 73.5445 4.60416 76.8555 4.88281C80.3719 5.92526 82.748 8.17135 83.9844 11.6211C89.2 24.5707 94.5061 37.4613 99.9023 50.293C99.9023 50.9439 99.9023 51.5951 99.9023 52.2461C92.8219 63.7889 83.8375 73.6522 72.9492 81.8359C65.8854 87.0309 58.3982 91.5881 50.4883 95.5078C50.0977 95.6381 49.707 95.6381 49.3164 95.5078C48.1016 94.9334 46.9297 94.3148 45.8008 93.6523C48.0402 92.5 50.2539 91.2955 52.4414 90.0391C66.7799 81.8225 78.7916 70.9826 88.4766 57.5195C89.4322 56.2586 90.1811 54.8914 90.7227 53.418C91.0963 52.6832 91.5193 51.967 91.9922 51.2695C92.1225 50.8789 92.1225 50.4883 91.9922 50.0977C87.1205 38.3359 82.3027 26.5522 77.5391 14.7461C77.1631 13.9284 76.7398 13.1471 76.2695 12.4023C74.7254 7.86049 71.6004 5.25633 66.8945 4.58985Z" fill="#FFD509"/>
<path fill-rule="evenodd" clip-rule="evenodd" d="M66.3086 11.6211C67.4002 12.0939 68.2141 12.8751 68.75 13.9648C72.8516 23.9908 76.9531 34.017 81.0547 44.043C82.6773 49.4055 81.766 54.2883 78.3203 58.6914C72.1193 66.1955 65.0555 72.7385 57.1289 78.3203C53.423 80.8244 49.6471 83.2006 45.8008 85.4492C41.3447 82.9937 37.0479 80.292 32.9102 77.3437C23.0135 70.3119 14.7127 61.7508 8.00781 51.6601C7.73965 51.2314 7.67455 50.7756 7.8125 50.293C12.6953 38.3139 17.5781 26.3346 22.4609 14.3555C22.8623 13.3032 23.5459 12.4894 24.5117 11.914C38.4326 11.623 52.365 11.5253 66.3086 11.6211Z" fill="#FB9841"/>
<path fill-rule="evenodd" clip-rule="evenodd" d="M66.3086 11.6211C69.1088 11.5885 71.9084 11.6211 74.707 11.7187C75.2609 11.8986 75.7816 12.1265 76.2695 12.4023C76.7398 13.1471 77.1631 13.9284 77.5391 14.7461C82.3027 26.5521 87.1205 38.3359 91.9922 50.0976C92.1225 50.4883 92.1225 50.8789 91.9922 51.2695C91.5193 51.967 91.0963 52.6832 90.7227 53.418C88.0863 57.0662 85.2543 60.5818 82.2266 63.9648C72.9178 73.548 62.3383 81.3932 50.4883 87.5C50.0977 87.6303 49.707 87.6303 49.3164 87.5C48.1002 86.8605 46.9283 86.1769 45.8008 85.4492C49.6471 83.2006 53.423 80.8244 57.1289 78.3203C65.0555 72.7385 72.1193 66.1955 78.3203 58.6914C81.766 54.2883 82.6773 49.4055 81.0547 44.043C76.9531 34.017 72.8516 23.9908 68.75 13.9648C68.2141 12.8751 67.4002 12.0939 66.3086 11.6211Z" fill="#FB8723"/>
<path fill-rule="evenodd" clip-rule="evenodd" d="M29.9297 28.0122C36.1801 27.9796 42.4301 28.0122 48.6797 28.1099C50.2313 28.5546 51.1754 29.5638 51.5118 31.1372C51.6997 34.9259 51.6346 38.7021 51.3165 42.4654C51.0081 42.7663 50.6499 42.9943 50.2422 43.149C48.3995 43.3335 46.5766 43.2683 44.7735 42.9536C44.4709 42.7165 44.2432 42.4236 44.0899 42.0747C43.9922 39.9925 43.9596 37.9091 43.9922 35.8247C40.8672 35.8247 37.7422 35.8247 34.6172 35.8247C34.6172 42.856 34.6172 49.8872 34.6172 56.9185C37.7422 56.9185 40.8672 56.9185 43.9922 56.9185C43.9596 54.8341 43.9922 52.7507 44.0899 50.6685C44.2432 50.3197 44.4709 50.0267 44.7735 49.7896C46.5766 49.4749 48.3995 49.4097 50.2422 49.5943C50.6499 49.749 51.0081 49.9769 51.3165 50.2779C51.637 54.0363 51.7022 57.8124 51.5118 61.606C51.2602 63.0298 50.4463 63.9738 49.0704 64.438C42.6995 64.7579 36.3192 64.823 29.9297 64.6333C28.5483 64.2286 27.6043 63.3497 27.0977 61.9966C26.9674 51.58 26.9674 41.1632 27.0977 30.7466C27.6395 29.3906 28.5834 28.479 29.9297 28.0122Z" fill="#FEDF45"/>
<path fill-rule="evenodd" clip-rule="evenodd" d="M56.2174 45.0033C59.0554 44.9944 61.8933 45.0033 64.7312 45.0301C65.009 45.1861 65.0715 45.4092 64.9186 45.6994C64.8784 45.733 64.8338 45.7597 64.7847 45.7798C61.929 45.8155 59.0731 45.8155 56.2174 45.7798C56.0186 45.6452 55.9562 45.4578 56.03 45.2175C56.1037 45.153 56.1661 45.0816 56.2174 45.0033Z" fill="#FEDF45"/>
<path fill-rule="evenodd" clip-rule="evenodd" d="M60.0033 49.7826C59.9944 46.9446 60.0033 44.1067 60.0301 41.2688C60.1861 40.991 60.4092 40.9285 60.6994 41.0814C60.733 41.1216 60.7597 41.1662 60.7798 41.2153C60.8155 44.071 60.8155 46.9269 60.7798 49.7826C60.6452 49.9814 60.4578 50.0438 60.2175 49.97C60.153 49.8963 60.0816 49.8339 60.0033 49.7826Z" fill="#FEDF45"/>
<path fill-rule="evenodd" clip-rule="evenodd" d="M68.2174 45.0033C71.0554 44.9944 73.8933 45.0033 76.7312 45.0301C77.009 45.1861 77.0715 45.4092 76.9186 45.6994C76.8784 45.733 76.8338 45.7597 76.7847 45.7798C73.929 45.8155 71.0731 45.8155 68.2174 45.7798C68.0186 45.6452 67.9562 45.4578 68.03 45.2175C68.1037 45.153 68.1661 45.0816 68.2174 45.0033Z" fill="#FEDF45"/>
<path fill-rule="evenodd" clip-rule="evenodd" d="M72.0033 49.7826C71.9944 46.9446 72.0033 44.1067 72.0301 41.2688C72.1861 40.991 72.4092 40.9285 72.6994 41.0814C72.733 41.1216 72.7597 41.1662 72.7798 41.2153C72.8155 44.071 72.8155 46.9269 72.7798 49.7826C72.6452 49.9814 72.4578 50.0438 72.2175 49.97C72.153 49.8963 72.0816 49.8339 72.0033 49.7826Z" fill="#FEDF45"/>
</g>
<defs>
<clipPath id="clip0_3_83">
<rect width="100" height="100" fill="white"/>
</clipPath>
</defs>
</svg>
