<svg width="100" height="100" viewBox="0 0 100 100" fill="none" xmlns="http://www.w3.org/2000/svg">
<g clip-path="url(#clip0_3_34)">
<path opacity="0.965" fill-rule="evenodd" clip-rule="evenodd" d="M47.3633 -0.0976562C50.0977 -0.0976562 52.832 -0.0976562 55.5664 -0.0976562C62.8049 0.633441 69.5107 2.94463 75.6836 6.83594C76.4447 7.43881 76.64 8.1875 76.2695 9.08203C75.9268 9.19379 75.6012 9.35654 75.293 9.57031C74.9674 9.70053 74.642 9.70053 74.3164 9.57031C66.923 4.92545 58.85 2.67936 50.0977 2.83203C35.3174 3.79254 23.8916 10.4332 15.8203 22.7539C9.09434 34.3344 7.98758 46.4437 12.5 59.082C18.2253 72.7492 28.2838 81.3756 42.6758 84.9609C45.1365 85.3898 47.6104 85.6828 50.0977 85.8398C62.5996 86.0266 73.1789 81.6646 81.8359 72.7539C85.1471 67.7463 85.0818 62.7984 81.6406 57.9102C77.3561 53.5682 72.4406 52.6893 66.8945 55.2734C65.2834 56.3629 63.7859 57.6 62.4023 58.9844C55.3961 63.6477 48.2996 63.7779 41.1133 59.375C38.7756 57.7217 36.8875 55.6709 35.4492 53.2227C32.2742 47.1195 32.3395 41.0648 35.6445 35.0586C38.777 30.1039 43.2691 27.2068 49.1211 26.3672C53.9887 25.7646 58.4158 26.8713 62.4023 29.6875C63.7121 30.9324 65.0793 32.1043 66.5039 33.2031C71.2654 35.6561 75.8229 35.3307 80.1758 32.2266C84.2664 28.3578 85.3406 23.768 83.3984 18.457C82.8895 17.4931 82.3035 16.5817 81.6406 15.7227C80.4582 14.5402 79.2863 13.3683 78.125 12.207C78.0084 11.5857 78.1061 10.9998 78.418 10.4492C79.3186 9.93279 80.165 10.0304 80.957 10.7422C86.9889 15.6969 88.7141 21.8492 86.1328 29.1992C85.0695 31.434 83.5721 33.3221 81.6406 34.8633C80.3 38.4291 78.998 42.0098 77.7344 45.6055C76.2268 48.0736 74.176 48.627 71.582 47.2656C70.8781 46.7367 70.3898 46.0531 70.1172 45.2148C69.1791 42.4656 68.2025 39.7312 67.1875 37.0117C66.299 36.551 65.4201 36.0627 64.5508 35.5469C63.2855 34.5748 62.0484 33.5656 60.8398 32.5195C59.6936 35.7305 58.4891 38.9207 57.2266 42.0898C55.5371 43.8182 53.6164 44.1111 51.4648 42.9688C50.7609 42.4398 50.2727 41.7562 50 40.918C49.6203 39.8115 49.2621 38.7047 48.9258 37.5977C47.676 38.1252 46.3738 38.2881 45.0195 38.0859C44.1813 37.8133 43.4977 37.325 42.9688 36.6211C42.4098 35.4 41.8891 34.1631 41.4063 32.9102C36.1906 37.9588 34.8885 43.8832 37.5 50.6836C41.0047 56.9777 46.3758 59.875 53.6133 59.375C56.4631 58.9588 59.0022 57.852 61.2305 56.0547C66.733 50.3791 73.048 49.2723 80.1758 52.7344C86.7045 57.2814 88.7553 63.3686 86.3281 70.9961C85.76 72.3289 85.0438 73.566 84.1797 74.707C82.8066 76.1455 81.3742 77.5127 79.8828 78.8086C78.6074 82.1791 77.3705 85.5645 76.1719 88.9648C74.6643 91.433 72.6135 91.9863 70.0195 90.625C69.7266 90.332 69.4336 90.0391 69.1406 89.7461C68.5434 88.4752 68.0225 87.173 67.5781 85.8398C66.4189 86.3781 65.2147 86.8014 63.9648 87.1094C63.0504 89.2648 62.1715 91.4459 61.3281 93.6523C59.9074 95.2172 58.1822 95.6404 56.1523 94.9219C55.7375 94.7027 55.3795 94.4098 55.0781 94.043C54.5303 95.491 53.9443 96.9232 53.3203 98.3398C52.7393 99.0328 52.0557 99.5535 51.2695 99.9023C50.4232 99.9023 49.5768 99.9023 48.7305 99.9023C47.9209 99.5854 47.2373 99.0646 46.6797 98.3398C45.9898 96.8883 45.4363 95.3908 45.0195 93.8477C43.4158 94.574 41.7881 94.6064 40.1367 93.9453C39.5758 93.4498 39.0875 92.8965 38.6719 92.2852C37.9941 90.317 37.2779 88.3639 36.5234 86.4258C36.2631 86.2955 36.0025 86.1654 35.7422 86.0352C34.5436 89.3057 33.3066 92.5607 32.0313 95.8008C30.1686 97.592 28.1178 97.8199 25.8789 96.4844C25.2869 95.9846 24.8637 95.366 24.6094 94.6289C23.9584 92.8061 23.3072 90.983 22.6563 89.1602C22.4379 88.2963 22.6658 87.5801 23.3398 87.0117C24.1803 86.8742 24.8639 87.1348 25.3906 87.793C26.1719 89.8764 26.9531 91.9596 27.7344 94.043C28.2689 94.2598 28.8225 94.2924 29.3945 94.1406C30.6522 91.1502 31.759 88.0902 32.7148 84.9609C32.6865 84.8102 32.6215 84.6799 32.5195 84.5703C28.6361 82.7932 25.1205 80.482 21.9727 77.6367C21.9076 77.7018 21.8424 77.767 21.7773 77.832C22.7147 79.6971 23.268 81.6502 23.4375 83.6914C23.1697 83.9924 22.8768 84.2529 22.5586 84.4727C21.7502 84.6281 21.1318 84.3678 20.7031 83.6914C19.4276 80.1904 18.1907 76.6748 16.9922 73.1445C15.015 70.3846 13.1921 67.5199 11.5234 64.5508C4.87106 50.3266 5.19656 36.2641 12.5 22.3633C20.4338 9.19781 32.0549 1.71083 47.3633 -0.0976562Z" fill="#010202"/>
<path fill-rule="evenodd" clip-rule="evenodd" d="M50.0977 2.83203C58.85 2.67935 66.923 4.92544 74.3164 9.57031C74.642 9.70052 74.9674 9.70052 75.293 9.57031C75.6012 9.35654 75.9268 9.19378 76.2695 9.08203C76.9582 9.58863 77.6742 10.0443 78.418 10.4492C78.1061 10.9998 78.0084 11.5857 78.125 12.207C79.2863 13.3683 80.4582 14.5402 81.6406 15.7227C82.3035 16.5817 82.8895 17.4931 83.3984 18.457C85.3406 23.768 84.2664 28.3578 80.1758 32.2266C75.8229 35.3307 71.2654 35.656 66.5039 33.2031C65.0793 32.1043 63.7121 30.9324 62.4023 29.6875C58.4158 26.8713 53.9887 25.7646 49.1211 26.3672C43.2691 27.2068 38.777 30.1039 35.6445 35.0586C35.4217 34.4453 35.3891 33.7943 35.5469 33.1055C37.6922 21.6553 42.5424 11.5642 50.0977 2.83203Z" fill="#7BE1FD"/>
<path fill-rule="evenodd" clip-rule="evenodd" d="M50.0977 2.83203C42.5424 11.5642 37.6922 21.6553 35.5469 33.1055C35.3891 33.7943 35.4217 34.4453 35.6445 35.0586C32.3395 41.0648 32.2742 47.1195 35.4492 53.2227C37.0883 65.5504 41.9711 76.4227 50.0977 85.8398C47.6104 85.6828 45.1365 85.3898 42.6758 84.9609C28.2838 81.3756 18.2253 72.7492 12.5 59.082C7.98758 46.4437 9.09434 34.3344 15.8203 22.7539C23.8916 10.4332 35.3174 3.79254 50.0977 2.83203Z" fill="#1CBAE9"/>
<path opacity="0.903" fill-rule="evenodd" clip-rule="evenodd" d="M85.8398 8.10547C86.3133 8.20908 86.7689 8.37184 87.207 8.59375C88.9689 10.3905 90.3686 12.4412 91.4063 14.7461C91.6959 15.9892 91.2076 16.7054 89.9414 16.8945C89.61 16.8166 89.2846 16.719 88.9648 16.6016C87.8293 14.4276 86.4295 12.4419 84.7656 10.6445C84.2674 9.42799 84.6256 8.58162 85.8398 8.10547Z" fill="black"/>
<path opacity="0.912" fill-rule="evenodd" clip-rule="evenodd" d="M14.3555 10.0586C16.0367 9.8195 16.7854 10.5356 16.6016 12.207C13.8781 15.2565 11.5344 18.5768 9.57031 22.168C8.93439 22.5447 8.2508 22.6424 7.51953 22.4609C6.53367 21.5092 6.50111 20.5 7.42187 19.4336C9.40136 16.0593 11.7126 12.9343 14.3555 10.0586Z" fill="black"/>
<path fill-rule="evenodd" clip-rule="evenodd" d="M49.707 29.0039C52.6074 28.8644 55.3744 29.3853 58.0078 30.5664C57.3506 32.9943 56.5693 35.4031 55.6641 37.793C55.3523 38.7961 54.9291 39.74 54.3945 40.625C53.9014 40.8 53.4781 40.7023 53.125 40.332C52.2402 38.0031 51.3938 35.6594 50.5859 33.3008C50.107 32.2623 49.3584 31.9693 48.3398 32.4219C47.7463 33.29 47.2254 34.2016 46.7773 35.1562C46.0613 35.4045 45.573 35.1766 45.3125 34.4726C44.8883 33.3301 44.4652 32.1908 44.043 31.0547C45.8162 29.9975 47.7043 29.3139 49.707 29.0039Z" fill="#B6ECFB"/>
<path fill-rule="evenodd" clip-rule="evenodd" d="M77.0508 37.0117C77.2563 36.9826 77.4516 37.015 77.6367 37.1094C76.682 39.4523 75.8031 41.8285 75 44.2383C74.7395 44.9422 74.2512 45.1701 73.5352 44.9219C73.1322 44.4314 72.8393 43.8781 72.6562 43.2617C72.0377 41.5039 71.4193 39.7461 70.8008 37.9883C71.9672 37.8262 73.1391 37.7285 74.3164 37.6953C75.2813 37.5844 76.1928 37.3564 77.0508 37.0117Z" fill="#B5EBFA"/>
<path fill-rule="evenodd" clip-rule="evenodd" d="M35.4492 53.2227C36.8875 55.6709 38.7756 57.7217 41.1133 59.375C48.2996 63.7779 55.3961 63.6477 62.4023 58.9844C63.7859 57.6 65.2834 56.3629 66.8945 55.2734C72.4406 52.6893 77.3561 53.5682 81.6406 57.9102C85.0818 62.7984 85.1471 67.7463 81.8359 72.7539C73.1789 81.6646 62.5996 86.0266 50.0977 85.8398C41.9711 76.4227 37.0883 65.5504 35.4492 53.2227Z" fill="#7BE2FE"/>
<path opacity="0.911" fill-rule="evenodd" clip-rule="evenodd" d="M90.7227 66.5039C91.7256 66.2941 92.4742 66.6197 92.9688 67.4805C92.6184 72.0227 90.9256 75.9941 87.8906 79.3945C87.2596 80.3777 86.3807 80.7359 85.2539 80.4688C84.5664 80.0379 84.2734 79.4193 84.375 78.6133C86.5559 76.3646 88.1834 73.7605 89.2578 70.8008C89.5682 69.64 89.8285 68.4682 90.0391 67.2852C90.3078 67.0498 90.5355 66.7895 90.7227 66.5039Z" fill="black"/>
<path opacity="0.997" fill-rule="evenodd" clip-rule="evenodd" d="M23.3398 87.0117C23.1576 86.1396 22.8973 85.2934 22.5586 84.4727C22.8768 84.2529 23.1697 83.9924 23.4375 83.6914C23.268 81.6502 22.7146 79.6971 21.7773 77.832C21.8424 77.767 21.9076 77.7018 21.9727 77.6367C25.1205 80.482 28.6361 82.7932 32.5195 84.5703C32.6215 84.6799 32.6865 84.8102 32.7148 84.9609C31.759 88.0902 30.6521 91.1502 29.3945 94.1406C28.8225 94.2924 28.2689 94.2598 27.7344 94.043C26.9531 91.9596 26.1719 89.8764 25.3906 87.793C24.8639 87.1348 24.1803 86.8742 23.3398 87.0117Z" fill="#B6EDFC"/>
<path fill-rule="evenodd" clip-rule="evenodd" d="M75.293 81.7383C74.8057 83.8195 74.1221 85.9029 73.2422 87.9883C72.8891 88.3586 72.4658 88.4563 71.9727 88.2812C71.3025 87.1846 70.7816 86.0127 70.4102 84.7656C72.1102 83.8518 73.7377 82.8426 75.293 81.7383Z" fill="#B3E8F7"/>
<path fill-rule="evenodd" clip-rule="evenodd" d="M40.1367 87.5977C40.1826 87.4811 40.2803 87.416 40.4297 87.4023C43.9885 88.2852 47.6018 88.741 51.2695 88.7695C54.2881 88.7344 57.2828 88.5064 60.2539 88.0859C59.7721 89.5043 59.1861 90.8715 58.4961 92.1875C57.5268 92.3307 56.9082 91.9076 56.6406 90.918C55.5768 90.0012 54.4375 89.9035 53.2227 90.625C52.9947 90.983 52.767 91.3412 52.5391 91.6992C52.0301 93.3566 51.4441 94.9842 50.7812 96.582C50.1379 97.1311 49.552 97.066 49.0234 96.3867C48.4109 94.4842 47.76 92.5961 47.0703 90.7227C46.4736 89.7197 45.5947 89.3617 44.4336 89.6484C43.7332 90.0715 43.2123 90.6574 42.8711 91.4062C42.2586 91.6096 41.7703 91.4467 41.4062 90.918C41.0734 89.7537 40.6502 88.6469 40.1367 87.5977Z" fill="#B5EBFA"/>
</g>
<defs>
<clipPath id="clip0_3_34">
<rect width="100" height="100" fill="white"/>
</clipPath>
</defs>
</svg>
