<svg width="40" height="40" viewBox="0 0 40 40" fill="none" xmlns="http://www.w3.org/2000/svg">
<g clip-path="url(#clip0_4_23)">
<path d="M21.5501 11.1073C22.7405 11.1467 23.9177 11.2519 25.0558 11.3965C24.0485 10.0687 23.0021 8.85919 21.9164 7.79431C21.2754 8.29388 20.6214 8.85919 19.9935 9.47708C20.5167 9.9898 21.0399 10.542 21.5501 11.1204V11.1073Z" fill="#F8F3D9" stroke="#231F20" stroke-width="0.38" stroke-linecap="round" stroke-linejoin="round"/>
<path d="M10.2089 11.9355C9.86884 8.85922 10.4444 6.65058 11.7656 5.88808C12.1449 5.66459 12.5897 5.55941 13.0867 5.55941C14.3556 5.55941 15.9776 6.24304 17.7566 7.5577C17.8613 7.63658 17.9659 7.71546 18.0706 7.79434C18.7115 7.1633 19.3525 6.58485 19.9935 6.07213C19.7449 5.87493 19.5095 5.69088 19.2609 5.50683C15.873 2.99582 12.7597 2.35164 10.4967 3.6663C8.22065 4.98096 7.2265 8.01783 7.68433 12.2116C7.72358 12.514 7.76282 12.8295 7.80206 13.1319C8.57383 12.8295 9.39793 12.5534 10.2482 12.3168C10.2351 12.1853 10.222 12.0538 10.1959 11.9355H10.2089Z" fill="#F8F3D9" stroke="#231F20" stroke-width="0.38" stroke-linecap="round" stroke-linejoin="round"/>
<path d="M27.0571 14.3019C25.9714 14.0916 24.8465 13.9207 23.6692 13.8024C24.3625 14.7884 25.0296 15.8269 25.6575 16.9181C26.2854 18.0093 26.8478 19.1136 27.3449 20.2048C27.8289 19.1267 28.2606 18.0619 28.6138 17.0101C28.3783 16.55 28.1167 16.0899 27.8551 15.6429C27.5935 15.1827 27.3318 14.7358 27.0571 14.3019Z" fill="#F8F3D9" stroke="#231F20" stroke-width="0.38" stroke-linecap="round" stroke-linejoin="round"/>
<path d="M19.9935 26.7781C18.7377 26.7781 17.5081 26.7255 16.3177 26.6072C16.9979 27.5669 17.7043 28.474 18.4368 29.3022C18.947 29.3154 19.4702 29.3285 19.9935 29.3285C20.5167 29.3285 21.0399 29.3285 21.5501 29.3022C22.2826 28.474 22.989 27.5669 23.6692 26.6072C22.4788 26.7255 21.2492 26.7781 19.9935 26.7781Z" fill="#F8F3D9" stroke="#231F20" stroke-width="0.38" stroke-linecap="round" stroke-linejoin="round"/>
<path d="M12.9298 26.1076C12.1711 25.9498 11.4386 25.7789 10.7322 25.5817C10.5229 26.4494 10.3528 27.2908 10.2482 28.0927C11.7133 28.5003 13.283 28.8026 14.9312 29.013C14.2379 28.0927 13.5707 27.1199 12.9298 26.1076Z" fill="#F8F3D9" stroke="#231F20" stroke-width="0.38" stroke-linecap="round" stroke-linejoin="round"/>
<path d="M25.0558 29.0261C26.704 28.8158 28.2737 28.5003 29.7387 28.1059C29.6341 27.2908 29.4771 26.4494 29.2547 25.5949C28.5484 25.7921 27.8158 25.9761 27.0571 26.1207C26.4162 27.133 25.7491 28.1059 25.0558 29.0261Z" fill="#F8F3D9" stroke="#231F20" stroke-width="0.38" stroke-linecap="round" stroke-linejoin="round"/>
<path d="M29.4902 3.66628C27.2141 2.35162 24.1139 2.99581 20.726 5.48052C20.4774 5.66457 20.242 5.84862 19.9934 6.04582C19.3394 6.57169 18.6984 7.15014 18.0706 7.76803C16.9848 8.83291 15.9384 10.0424 14.9311 11.3702C14.2379 12.2905 13.5707 13.2633 12.9298 14.2756C12.6551 14.7094 12.3934 15.1564 12.1318 15.6166C11.8702 16.0767 11.6217 16.5237 11.3731 16.9838C11.7263 18.0355 12.1449 19.1004 12.642 20.1784C13.1391 19.0873 13.7015 17.983 14.3294 16.8918C14.9573 15.8006 15.6244 14.762 16.3177 13.776C16.9979 12.8163 17.7043 11.9092 18.4368 11.081C18.947 10.4894 19.4702 9.95037 19.9934 9.43765C20.6344 8.81976 21.2754 8.25446 21.9163 7.75488C22.021 7.676 22.1256 7.59712 22.2303 7.51824C24.0093 6.20358 25.6313 5.51996 26.9002 5.51996C27.3972 5.51996 27.842 5.62513 28.2213 5.84862C29.5425 6.61113 30.1181 8.81976 29.778 11.8961C29.7649 12.0275 29.7518 12.159 29.7256 12.2773C30.589 12.514 31.4 12.79 32.1718 13.0924C32.2241 12.7769 32.2633 12.4745 32.2895 12.1722C32.7473 7.97838 31.7401 4.95465 29.4771 3.62684L29.4902 3.66628Z" fill="#F8F3D9" stroke="#231F20" stroke-width="0.38" stroke-linecap="round" stroke-linejoin="round"/>
<path d="M29.2547 14.8409C29.0716 15.5508 28.8623 16.287 28.6138 17.0232C28.2606 18.075 27.842 19.1398 27.3449 20.2179C26.8478 21.309 26.2854 22.4134 25.6575 23.5045C25.0296 24.5957 24.3625 25.6343 23.6692 26.6203C22.989 27.58 22.2826 28.4871 21.5501 29.3153C21.0399 29.9069 20.5167 30.4459 19.9935 30.9587C19.3525 31.5766 18.7115 32.1419 18.0706 32.6414C17.9659 32.7203 17.8613 32.7992 17.7566 32.8781C15.2713 34.7055 13.0867 35.3102 11.7656 34.5477C10.4444 33.7852 9.86885 31.5766 10.209 28.5002C10.222 28.3688 10.2351 28.2373 10.2613 28.119C10.3659 27.3039 10.5229 26.4625 10.7453 25.608C10.9284 24.8981 11.1377 24.1619 11.3862 23.4256C10.8238 22.3608 10.3267 21.2959 9.88193 20.231C9.24096 21.7692 8.71773 23.2942 8.33838 24.7666C8.11601 25.6343 7.93287 26.4888 7.81515 27.3039C7.76282 27.6194 7.72358 27.9218 7.69742 28.2242C7.23959 32.4179 8.24682 35.4417 10.5098 36.7695C11.2816 37.2165 12.1449 37.44 13.0867 37.44C14.9181 37.44 17.0372 36.5986 19.274 34.9552C19.5225 34.7712 19.758 34.5871 20.0065 34.3899C20.6606 33.8641 21.3015 33.2856 21.9294 32.6677C23.0151 31.6028 24.0616 30.3934 25.0688 29.0655C25.7621 28.1453 26.4293 27.1724 27.0702 26.1601C27.3449 25.7263 27.6065 25.2793 27.8682 24.8192C28.1298 24.3591 28.3783 23.9121 28.6268 23.4519C29.1893 22.3871 29.6864 21.3222 30.1312 20.2573C30.7721 18.7192 31.2954 17.1941 31.6747 15.7217C30.9291 15.4062 30.1181 15.1301 29.2678 14.8803L29.2547 14.8409Z" fill="#F8F3D9" stroke="#231F20" stroke-width="0.38" stroke-linecap="round" stroke-linejoin="round"/>
<path d="M33.0482 13.4868C32.7735 13.3685 32.4857 13.2502 32.1979 13.1319C31.4262 12.8295 30.6021 12.5534 29.7518 12.3168C28.2867 11.9092 26.717 11.6068 25.0688 11.3965C23.9308 11.2519 22.7535 11.1599 21.5632 11.1073C21.053 11.0941 20.5298 11.081 20.0065 11.081C19.4833 11.081 18.9601 11.081 18.4499 11.1073C17.7174 11.9355 17.011 12.8426 16.3308 13.8023C17.5212 13.684 18.7508 13.6314 20.0065 13.6314C21.2623 13.6314 22.4919 13.684 23.6823 13.8023C24.8596 13.9206 25.9845 14.0784 27.0702 14.3019C27.8289 14.4597 28.5614 14.6306 29.2678 14.8278C30.1181 15.0776 30.9291 15.3536 31.6747 15.6692C31.7924 15.7217 31.9102 15.7743 32.0279 15.8269C34.8403 17.0758 36.4623 18.6666 36.4623 20.2047C36.4623 21.7429 34.8403 23.3336 32.0279 24.5826C31.9102 24.6352 31.7924 24.6877 31.6747 24.7403C31.8971 25.608 32.0802 26.4625 32.1979 27.2776C32.4857 27.1593 32.7735 27.041 33.0482 26.9227C36.8809 25.2267 39 22.8341 39 20.2047C39 17.5754 36.8809 15.1827 33.0482 13.4868Z" fill="#F8F3D9" stroke="#231F20" stroke-width="0.38" stroke-linecap="round" stroke-linejoin="round"/>
<path d="M18.4368 29.3022C17.7043 28.474 16.9979 27.5669 16.3177 26.6072C15.6244 25.6212 14.9573 24.5826 14.3294 23.4914C13.7016 22.4002 13.1391 21.2959 12.642 20.2047C12.158 19.1267 11.7263 18.0618 11.3732 17.0101C11.1246 16.2739 10.9153 15.5508 10.7322 14.8278C9.88194 15.0776 9.07092 15.3536 8.32531 15.6692C8.70466 17.1416 9.22789 18.6666 9.86886 20.2047C10.3136 21.2696 10.8238 22.3345 11.3732 23.3994C11.6086 23.8595 11.8702 24.3196 12.1318 24.7666C12.3935 25.2268 12.6551 25.6737 12.9298 26.1076C13.5707 27.1199 14.2379 28.0927 14.9312 29.013C15.9384 30.3408 16.9849 31.5503 18.0706 32.6152C18.7115 32.1156 19.3656 31.5503 19.9935 30.9324C19.4702 30.4197 18.947 29.8675 18.4368 29.2891V29.3022Z" fill="#F8F3D9" stroke="#231F20" stroke-width="0.38" stroke-linecap="round" stroke-linejoin="round"/>
<path d="M32.3026 28.211C32.2633 27.9086 32.2241 27.5931 32.1849 27.2907C32.0541 26.4625 31.884 25.6211 31.6616 24.7535C31.2823 23.281 30.759 21.756 30.1181 20.2179C29.6733 21.2827 29.1632 22.3476 28.6138 23.4125C28.8623 24.1487 29.0716 24.8718 29.2547 25.5948C29.464 26.4625 29.6341 27.3039 29.7387 28.1058C29.7518 28.2373 29.7649 28.3688 29.7911 28.4871C30.1312 31.5634 29.5556 33.772 28.2344 34.5345C26.9133 35.297 24.7287 34.6923 22.2434 32.8649C22.1387 32.786 22.0341 32.7072 21.9294 32.6283C21.2885 33.2593 20.6475 33.8378 20.0065 34.3505C20.2551 34.5477 20.4905 34.7317 20.7391 34.9158C22.9759 36.5591 25.095 37.4005 26.9263 37.4005C27.8682 37.4005 28.7315 37.177 29.5033 36.73C31.7794 35.4154 32.7735 32.3785 32.3157 28.1847L32.3026 28.211Z" fill="#F8F3D9" stroke="#231F20" stroke-width="0.38" stroke-linecap="round" stroke-linejoin="round"/>
<path d="M10.2482 12.3168C9.38485 12.5534 8.57384 12.8295 7.80207 13.1319C7.51429 13.2502 7.22651 13.3685 6.95181 13.4868C3.1191 15.1827 1 17.5754 1 20.2047C1 22.8341 3.1191 25.2268 6.95181 26.9227C7.22651 27.041 7.51429 27.1593 7.80207 27.2776C7.93287 26.4494 8.10293 25.608 8.3253 24.7403C8.20757 24.6877 8.08985 24.6352 7.97212 24.5826C5.15972 23.3336 3.53769 21.7429 3.53769 20.2047C3.53769 18.6666 5.15972 17.0758 7.97212 15.8269C8.08985 15.7743 8.20757 15.7217 8.3253 15.6692C9.07091 15.3536 9.88193 15.0776 10.7322 14.8278C11.4386 14.6306 12.1711 14.4465 12.9298 14.3019C13.5707 13.2896 14.2379 12.3168 14.9312 11.3965C13.283 11.6068 11.7133 11.9224 10.2482 12.3168Z" fill="#F8F3D9" stroke="#231F20" stroke-width="0.38" stroke-linecap="round" stroke-linejoin="round"/>
</g>
<defs>
<clipPath id="clip0_4_23">
<rect width="39.8" height="40" fill="white"/>
</clipPath>
</defs>
</svg>
